<?xml version="1.0" standalone="no"?>
<!DOCTYPE svg PUBLIC "-//W3C//DTD SVG 20010904//EN"
 "http://www.w3.org/TR/2001/REC-SVG-20010904/DTD/svg10.dtd">
<svg version="1.0" xmlns="http://www.w3.org/2000/svg"
 width="200.000000pt" height="200.000000pt" viewBox="0 0 200.000000 200.000000"
 preserveAspectRatio="xMidYMid meet">
<metadata>
Created by potrace 1.14, written by Peter Selinger 2001-2017
</metadata>
<g transform="translate(0.000000,200.000000) scale(0.100000,-0.100000)"
fill="#000000" stroke="none">
<path d="M485 1310 c165 -165 302 -305 303 -310 2 -6 -129 -144 -292 -307
-163 -163 -294 -299 -290 -302 3 -3 113 -6 246 -6 l240 -1 181 178 181 178
137 -137 c75 -76 156 -156 178 -178 l42 -40 249 0 c138 0 250 1 250 2 0 2
-135 139 -300 304 -165 166 -300 304 -300 306 0 2 135 139 300 304 165 165
300 302 300 305 0 2 -112 4 -249 3 l-249 -1 -180 -179 -179 -179 -180 179
-180 180 -254 1 -254 0 300 -300z"/>
<path d="M90 1170 c-16 -29 -13 -183 4 -206 13 -17 31 -19 188 -24 l173 -5 2
-32 2 -33 -190 0 -189 0 0 -43 0 -42 218 0 c273 1 262 -4 262 122 0 125 4 123
-211 123 -181 0 -181 0 -171 55 3 20 10 21 190 20 l187 0 3 43 3 43 -230 -1
c-215 -1 -232 -3 -241 -20z"/>
</g>
</svg>
